<?xml version="1.0" encoding="utf-8"?>

<!-- License Agreement at http://iconmonstr.com/license/ -->

<!DOCTYPE svg PUBLIC "-//W3C//DTD SVG 1.1//EN" "http://www.w3.org/Graphics/SVG/1.1/DTD/svg11.dtd">
<svg version="1.1" xmlns="http://www.w3.org/2000/svg" xmlns:xlink="http://www.w3.org/1999/xlink" x="0px" y="0px"
	 width="512px" height="512px" viewBox="0 0 512 512" style="enable-background:new 0 0 512 512;" xml:space="preserve">
<path id="anchor-5-icon" d="M343.84,322.343h41.396c-20,31.632-73.736,53.052-109.208,53.052c0,0,0-23.33,0-52.823
	c22.465-6.896,46.214-20.909,68.93-44.067l-21.416-21.008c-13.17,13.426-29.94,25.492-47.514,32.914c0-22.368,0-44.844,0-61.4
	c16.38-2.595,50.336-5.342,76.879-27.027c15.137-12.366,24.03-28.485,25.042-45.39c1.581-26.413-15.741-49.305-43.436-58.024
	c1.471,10.861,0.688,21.856-1.868,31.578c10.146,5.415,15.969,14.434,15.357,24.654c-1.757,29.319-42.816,39.553-71.821,43.824
	c2.616-40.536,39.072-47.251,39.072-89.371C315.254,76.528,288.725,50,256,50s-59.254,26.528-59.254,59.254
	c0,44.615,39.226,46.881,39.226,97.365c-31.604,8.54-57.924,22.881-65.424,49.864c-9.53,34.286,18.546,68.332,65.424,71.173
	c0,27.045,0,47.738,0,47.738c-35.472,0-89.208-21.42-109.208-53.052h41.396L78.5,267v104.686l22.514-31.961
	C148.981,419.659,214.252,416.145,256,462c41.748-45.855,107.019-42.341,154.986-122.275l22.514,31.961V267L343.84,322.343z
	 M229.672,109.254c0-14.518,11.811-26.329,26.328-26.329s26.328,11.812,26.328,26.329S270.518,135.582,256,135.582
	S229.672,123.771,229.672,109.254z M235.972,237.906c0,17.314,0,38.971,0,59.938C196.623,294.425,176.699,256.648,235.972,237.906z"
	/>
</svg>
